<svg width="57" height="58" viewBox="0 0 57 58" fill="none" xmlns="http://www.w3.org/2000/svg">
<circle cx="28.3735" cy="28.9995" r="28.3403" fill="white"/>
<path d="M40.8141 22.8041C39.747 23.4574 38.8631 24.3708 38.2452 25.4587C37.6272 26.5466 37.2954 27.7735 37.2807 29.0246C37.2849 30.4326 37.7021 31.8086 38.4806 32.9819C39.259 34.1552 40.3646 35.0744 41.6603 35.6256C41.1495 37.2739 40.3934 38.8359 39.4176 40.2591C38.0213 42.2691 36.5613 44.2789 34.3398 44.2789C32.1183 44.2789 31.547 42.9884 28.9869 42.9884C26.4903 42.9884 25.6017 44.3214 23.5705 44.3214C21.5394 44.3214 20.122 42.4594 18.4928 40.1745C16.3407 36.9735 15.1579 33.2195 15.0864 29.363C15.0864 23.0157 19.2122 19.6518 23.2743 19.6518C25.4325 19.6518 27.2309 21.0692 28.585 21.0692C29.8756 21.0692 31.8856 19.567 34.3398 19.567C35.6016 19.5344 36.8521 19.8127 37.9811 20.3772C39.1101 20.9417 40.083 21.7751 40.8141 22.8041ZM33.1762 16.8801C34.2581 15.6075 34.8705 14.0021 34.9111 12.3323C34.913 12.1122 34.8917 11.8924 34.8476 11.6768C32.9893 11.8583 31.2709 12.744 30.0448 14.1522C28.9525 15.3742 28.317 16.9366 28.2464 18.574C28.2472 18.7732 28.2685 18.9717 28.3099 19.1665C28.4564 19.1942 28.6051 19.2084 28.7542 19.2089C29.6106 19.1407 30.4443 18.8992 31.2045 18.4988C31.9647 18.0985 32.6355 17.5478 33.1762 16.8801Z" fill="white"/>
<path d="M40.8141 22.8041C39.747 23.4574 38.8631 24.3708 38.2452 25.4587C37.6272 26.5466 37.2954 27.7735 37.2807 29.0246C37.2849 30.4326 37.7021 31.8086 38.4806 32.9819C39.259 34.1552 40.3646 35.0744 41.6603 35.6256C41.1495 37.2739 40.3934 38.8359 39.4176 40.2591C38.0213 42.2691 36.5613 44.2789 34.3398 44.2789C32.1183 44.2789 31.547 42.9884 28.9869 42.9884C26.4903 42.9884 25.6017 44.3214 23.5705 44.3214C21.5394 44.3214 20.122 42.4594 18.4928 40.1745C16.3407 36.9735 15.1579 33.2195 15.0864 29.363C15.0864 23.0157 19.2122 19.6518 23.2743 19.6518C25.4325 19.6518 27.2309 21.0692 28.585 21.0692C29.8756 21.0692 31.8856 19.567 34.3398 19.567C35.6016 19.5344 36.8521 19.8127 37.9811 20.3772C39.1101 20.9417 40.083 21.7751 40.8141 22.8041ZM33.1762 16.8801C34.2581 15.6075 34.8705 14.0021 34.9111 12.3323C34.913 12.1122 34.8917 11.8924 34.8476 11.6768C32.9893 11.8583 31.2709 12.744 30.0448 14.1522C28.9525 15.3742 28.317 16.9366 28.2464 18.574C28.2472 18.7732 28.2685 18.9717 28.3099 19.1665C28.4564 19.1942 28.6051 19.2084 28.7542 19.2089C29.6106 19.1407 30.4443 18.8992 31.2045 18.4988C31.9647 18.0985 32.6355 17.5478 33.1762 16.8801Z" fill="black"/>
</svg>
